<?xml version="1.0" standalone="no"?><!DOCTYPE svg PUBLIC "-//W3C//DTD SVG 1.1//EN" "http://www.w3.org/Graphics/SVG/1.1/DTD/svg11.dtd"><svg class="icon" height="512" viewBox="0 0 1024 1024" version="1.1" xmlns="http://www.w3.org/2000/svg"><path d="M512 512m-512 0a512 512 0 1 0 1024 0 512 512 0 1 0-1024 0Z" fill="#90DFAA" /><path d="M615.206299 495.067717c0 69.341732-46.765354 91.91811-103.206299 91.91811s-103.206299-22.576378-103.206299-91.91811S454.752756 334.614173 512 334.614173s103.206299 91.111811 103.206299 160.453544z" fill="#F9B54C" /><path d="M620.044094 479.748031l-5.644094 286.236221-33.058268 93.530709-58.053543 164.485039h-25.801575L439.433071 862.740157l-48.377953-135.458267V508.774803l16.932284-40.31496 0.806299 0.806299 5.644094 5.644094 63.697638 66.116536 11.288189 11.288189 20.15748-11.288189 0.8063-0.8063 17.738582-9.67559 78.211024-44.346457 7.256693-4.031496 6.450393-2.418898z" fill="#E6E9EE" /><path d="M476.522835 541.026772l-20.96378 28.220472 26.607874 35.477165h59.666142l26.607874-35.477165-20.96378-28.220472z" fill="#F1543F" /><path d="M595.855118 947.401575l-29.026772 33.058268-37.896063 42.733858H494.261417l-37.896063-42.733858L427.338583 947.401575l4.031496-23.382677 9.67559-62.08504 13.707087-88.692913 26.607874-168.516536h59.666142l27.414173 168.516536 13.707086 86.274016 10.48189 64.503937 3.225197 23.382677z" fill="#FF7058" /><path d="M299.137008 828.875591c-7.256693 5.644094-14.513386 62.085039-22.576378 137.877165-0.806299 0-1.612598-0.806299-1.612599-0.806299-43.540157-22.576378-83.048819-51.60315-118.525984-85.467717 12.900787-169.322835 24.995276-310.425197 24.995276-310.425197v0.8063l117.719685 258.015748z" fill="#324A5E" /><path d="M507.968504 1024h-12.900787c-5.644094 0-10.48189 0-16.125985-0.806299-72.566929-4.837795-141.102362-24.188976-201.574803-55.634646-0.806299 0-1.612598-0.806299-1.612598-0.806299-30.63937-202.381102-88.692913-382.185827-92.72441-395.086614v-0.806299c150.777953-32.251969 228.182677-128.201575 236.24567-139.489764 0-0.806299 0.806299-0.806299 0.806299-0.806299 0 0.806299 0 1.612598-0.806299 2.418897-2.418898 10.48189-4.031496 24.995276-4.031497 42.733858 0 16.932283 0.806299 36.283465 3.225197 58.053544 0 4.031496 0.806299 8.062992 0.8063 12.900787 6.450394 66.922835 20.96378 149.165354 35.477165 226.570079 24.995276 131.426772 52.409449 248.340157 52.409449 248.340157 0.806299 0.806299 0.806299 1.612598 0.806299 2.418898z" fill="#2B3B4E" /><path d="M507.968504 1024h-12.900787c-5.644094 0-10.48189 0-16.125985-0.806299-7.256693-13.707087-14.513386-27.414173-21.770078-41.927559-8.869291-17.738583-16.932283-37.089764-24.995276-56.440945-63.697638-150.777953-106.431496-325.744882-106.431496-325.744882 12.900787 1.612598 47.571654-14.513386 47.571653-14.513386l-47.571653-55.634646c50.79685-12.900787 86.274016-80.629921 94.337008-95.949606 0.806299-1.612598 1.612598-2.418898 1.612598-3.225197 0 0.806299 0 1.612598-0.806299 2.418898-2.418898 10.48189-4.031496 24.995276-4.031496 42.733858 0 16.932283 0.806299 36.283465 3.225197 58.053544 0 4.031496 0.806299 8.062992 0.806299 12.900787 6.450394 66.922835 20.96378 149.165354 35.477165 226.570079 24.995276 131.426772 52.409449 248.340157 52.409449 248.340157-0.806299 1.612598-0.806299 2.418898-0.806299 3.225197z" fill="#ACB3BA" /><path d="M867.577953 880.47874c-34.670866 33.864567-74.985827 62.891339-118.525984 85.467717-0.806299 0-1.612598 0.806299-1.612599 0.806299-7.256693-76.598425-15.319685-132.233071-22.576378-137.877165l116.913386-258.015748v-0.8063s12.900787 141.908661 25.801575 310.425197z" fill="#2B3B4E" /><path d="M841.776378 570.053543c0 0.806299 0 0.806299 0 0-4.031496 13.707087-62.085039 193.511811-92.724409 395.892914-0.806299 0-1.612598 0.806299-1.612599 0.806299-61.27874 31.445669-129.814173 51.60315-201.574803 55.634646-5.644094 0-10.48189 0.806299-16.125984 0.806299H516.031496v-1.612599s27.414173-116.913386 52.409449-248.340157c14.513386-77.404724 28.220472-160.453543 35.477165-226.570079 0-4.031496 0.806299-8.062992 0.806299-12.094488 1.612598-16.932283 2.418898-33.058268 3.225197-46.765354 0.806299-23.382677-0.806299-41.927559-4.031496-54.828347 0-0.806299 0-1.612598-0.806299-2.418897l0.806299 0.806299c7.256693 8.869291 84.661417 106.431496 237.858268 138.683464z" fill="#324A5E" /><path d="M699.061417 599.080315s-42.733858 174.16063-106.431496 325.744882c-8.062992 19.351181-16.932283 37.896063-24.995275 56.440945-7.256693 14.513386-14.513386 29.026772-21.770079 41.927559-5.644094 0-10.48189 0.806299-16.125984 0.806299H516.031496v-1.612598s27.414173-116.913386 52.409449-248.340158c14.513386-77.404724 28.220472-160.453543 35.477165-226.570079 0-4.031496 0.806299-8.062992 0.806299-12.094488 1.612598-16.932283 2.418898-33.058268 3.225197-46.765354 0.806299-23.382677-0.806299-41.927559-4.031496-54.828347 0-0.806299 0-1.612598-0.806299-2.418897 0 0 0.806299 0.806299 0.806299 2.418897 7.256693 14.513386 43.540157 83.048819 94.337008 95.949607L651.489764 584.566929s34.670866 16.125984 47.571653 14.513386z" fill="#CED5E0" /><path d="M603.111811 429.75748s22.576378 50.79685-91.111811 110.462992l51.60315 76.598426c0 0.806299 81.43622-115.300787 39.508661-187.061418zM420.888189 429.75748S398.311811 480.554331 512 540.220472l-51.60315 76.598426c0 0.806299-81.43622-115.300787-39.508661-187.061418z" fill="#FFFFFF" /><path d="M646.651969 262.853543c0 99.981102-60.472441 230.601575-134.651969 230.601575s-134.651969-130.620472-134.651969-230.601575 60.472441-131.426772 134.651969-131.426771 134.651969 31.445669 134.651969 131.426771z" fill="#FFD05B" /><path d="M676.485039 311.231496c-8.062992 18.544882-23.382677 29.833071-33.864567 25.801575-10.48189-4.031496-12.900787-21.770079-4.837795-40.314961s23.382677-29.833071 33.864567-25.801575c11.288189 3.225197 12.900787 21.770079 4.837795 40.314961zM347.514961 311.231496c8.062992 18.544882 23.382677 29.833071 33.864567 25.801575s12.900787-21.770079 4.837795-40.314961-23.382677-29.833071-33.864567-25.801575c-11.288189 3.225197-12.900787 21.770079-4.837795 40.314961z" fill="#FFD05B" /><path d="M511.193701 166.903937c39.508661-21.770079 131.426772-52.409449 131.426771 145.133858 0 0 88.692913-226.570079-46.765354-229.795275 0 0-95.143307-96.755906-218.507087 44.346456l19.351182-9.67559s-99.174803 58.053543-14.513386 195.124409c0 0-14.513386-198.349606 95.143307-144.327559 10.48189 5.644094 23.382677 4.837795 33.864567-0.806299z" fill="#324A5E" /></svg>