<?xml version="1.0" standalone="no"?><!DOCTYPE svg PUBLIC "-//W3C//DTD SVG 1.1//EN" "http://www.w3.org/Graphics/SVG/1.1/DTD/svg11.dtd"><svg class="icon" height="512" viewBox="0 0 1024 1024" version="1.1" xmlns="http://www.w3.org/2000/svg"><path d="M512 512m-512 0a512 512 0 1 0 1024 0 512 512 0 1 0-1024 0Z" fill="#90DFAA" /><path d="M514.418898 732.119685c-0.806299 0-1.612598 0.806299-3.225197 0.806299-0.806299 0-1.612598-0.806299-3.225197-0.806299h6.450394z" fill="#E6E9EE" /><path d="M924.018898 814.362205c-92.724409 126.588976-243.502362 209.637795-412.825197 209.637795S191.899213 941.75748 98.368504 814.362205c72.566929-77.404724 170.935433-118.525984 253.177953-139.489764-7.256693 58.859843 23.382677 137.877165 24.188976 135.458268 30.63937-70.954331 134.651969-77.404724 134.651969-77.404725s104.012598 5.644094 135.458267 77.404725c0.806299 1.612598 31.445669-76.598425 24.188977-135.458268 83.048819 20.96378 181.417323 62.085039 253.984252 139.489764z" fill="#E6E9EE" /><path d="M638.588976 620.850394c0 10.48189-6.450394 66.116535-124.170078 111.269291H507.968504c-117.719685-45.152756-124.170079-100.787402-124.170079-111.269291 0.806299-20.96378 5.644094-41.927559 14.513386-61.27874 32.251969 36.283465 70.954331 60.472441 112.88189 60.47244 41.12126 0 80.629921-23.382677 112.88189-60.47244 8.869291 19.351181 14.513386 40.314961 14.513385 61.27874z" fill="#FFD05B" /><path d="M581.341732 750.664567L555.540157 802.267717h-88.692913l-25.801575-51.60315c35.477165-15.319685 70.148031-17.738583 70.148032-17.738583s35.477165 2.418898 70.148031 17.738583z" fill="#F1543F" /><path d="M439.433071 1019.162205c23.382677 3.225197 47.571654 4.837795 72.566929 4.837795 24.188976 0 48.377953-1.612598 72.566929-4.837795l-28.220472-216.088189h-88.692914l-28.220472 216.088189z" fill="#FF7058" /><path d="M638.588976 619.237795s5.644094 64.503937-127.395275 113.688189c0 0 104.012598 5.644094 135.458268 77.404725 0.806299 3.225197 61.27874-153.19685-8.062993-191.092914z" fill="#FFFFFF" /><path d="M383.798425 619.237795c-68.535433 37.896063-8.869291 193.511811-7.256693 191.092914 30.63937-70.954331 135.458268-77.404724 135.458268-77.404725-133.845669-49.184252-128.201575-113.688189-128.201575-113.688189z" fill="#FFFFFF" /><path d="M630.525984 575.697638c-33.864567 36.283465-74.179528 59.666142-119.332283 59.666142s-85.467717-23.382677-119.332284-59.666142c1.612598-5.644094 4.031496-11.288189 6.450394-16.125984 32.251969 36.283465 70.954331 60.472441 112.88189 60.47244s80.629921-23.382677 112.88189-60.47244c2.418898 4.837795 4.837795 10.48189 6.450393 16.125984z" fill="#F9B54C" /><path d="M731.313386 452.333858c-16.932283 28.220472-42.733858 45.152756-62.08504 41.927559-38.702362 71.76063-95.143307 124.976378-158.034645 124.976378s-119.332283-54.022047-158.034646-124.976378c-19.351181 2.418898-45.152756-13.707087-62.085039-41.927559-20.15748-33.058268-20.96378-69.341732-1.612599-81.43622 4.837795-2.418898 9.675591-4.031496 15.319685-3.225197 12.900787 33.058268 30.63937 53.215748 30.63937 53.215748-18.544882-102.4 57.247244-113.688189 44.346457-212.056693 0 0 47.571654 105.625197 183.836221 31.445669l-10.48189 20.157481c190.286614-42.733858 126.588976 181.417323 124.976378 187.061417 21.770079-27.414173 35.477165-54.828346 43.540157-79.823622 3.225197 0 7.256693 1.612598 9.675591 3.225197 20.96378 11.288189 20.15748 48.377953 0 81.43622z" fill="#FFD05B" /><path d="M620.850394 102.4c15.319685-1.612598 40.314961 12.094488 40.31496 12.094488-68.535433-78.211024-180.611024-28.220472-180.611023-28.220472 37.896063-32.251969 71.76063-29.026772 71.76063-29.026772-160.453543-24.188976-187.867717 71.76063-187.867717 71.76063-7.256693-11.288189-7.256693-27.414173-6.450394-35.477165-11.288189 19.351181 0.806299 58.053543 0.8063 58.053543-11.288189-28.220472-50.79685-23.382677-50.796851-23.382677 33.864567 5.644094 39.508661 26.607874 39.508662 26.607874-84.661417 31.445669-70.148031 119.332283-70.148032 119.332283l20.15748-24.188976c-24.995276 95.949606 38.702362 170.129134 38.702363 170.129134-18.544882-102.4 57.247244-113.688189 44.346456-212.056693 0 0 47.571654 105.625197 183.836221 31.445669l-10.48189 20.15748c192.705512-43.540157 124.976378 187.867717 124.976378 187.867717 68.535433-87.080315 58.053543-176.579528 58.053543-176.579528l8.062992 32.251969c21.770079-145.133858-124.170079-200.768504-124.170078-200.768504z" fill="#324A5E" /></svg>